<svg width="26" height="24" viewBox="0 0 26 24" fill="none" xmlns="http://www.w3.org/2000/svg">
<path d="M13 23.25C12.1937 22.535 11.2825 21.7913 10.3187 21H10.3062C6.9125 18.225 3.06625 15.085 1.3675 11.3225C0.809395 10.1247 0.513628 8.82141 0.499984 7.5C0.496256 5.68686 1.22346 3.94873 2.51726 2.67846C3.81105 1.40819 5.56223 0.712995 7.375 0.750002C8.85078 0.752333 10.2948 1.17885 11.535 1.97875C12.08 2.33246 12.573 2.76032 13 3.25C13.4294 2.76224 13.9226 2.33464 14.4662 1.97875C15.7059 1.17869 17.1496 0.75215 18.625 0.750002C20.4378 0.712995 22.1889 1.40819 23.4827 2.67846C24.7765 3.94873 25.5037 5.68686 25.5 7.5C25.4873 8.82352 25.1915 10.129 24.6325 11.3288C22.9337 15.0913 19.0887 18.23 15.695 21L15.6825 21.01C14.7175 21.7963 13.8075 22.54 13.0012 23.26L13 23.25ZM7.375 3.25C6.21064 3.23543 5.08759 3.68106 4.25 4.49C3.44298 5.28271 2.99194 6.36881 2.99989 7.5C3.01416 8.46313 3.23228 9.41232 3.64 10.285C4.44189 11.9084 5.52388 13.3776 6.83625 14.625C8.075 15.875 9.5 17.085 10.7325 18.1025C11.0737 18.3838 11.4212 18.6675 11.7687 18.9513L11.9875 19.13C12.3212 19.4025 12.6662 19.685 13 19.9625L13.0162 19.9475L13.0237 19.9413H13.0312L13.0425 19.9325H13.0487H13.055L13.0775 19.9138L13.1287 19.8725L13.1375 19.865L13.1512 19.855H13.1587L13.17 19.845L14 19.1638L14.2175 18.985C14.5687 18.6988 14.9162 18.415 15.2575 18.1338C16.49 17.1163 17.9162 15.9075 19.155 14.6513C20.4675 13.4045 21.5496 11.9356 22.3512 10.3125C22.7663 9.43225 22.9876 8.47313 23 7.5C23.0052 6.3723 22.5544 5.29037 21.75 4.5C20.914 3.6874 19.7908 3.2381 18.625 3.25C17.2024 3.23791 15.8424 3.83421 14.8875 4.88875L13 7.06375L11.1125 4.88875C10.1576 3.83421 8.79759 3.23791 7.375 3.25Z" fill="#B6CFCA"/>
</svg>
