<svg width="26" height="26" viewBox="0 0 26 26" fill="none" xmlns="http://www.w3.org/2000/svg">
<path d="M12.9988 25.5C6.8196 25.4185 1.8302 20.4291 1.74875 14.25C1.8302 8.07083 6.8196 3.08143 12.9988 2.99999C19.1779 3.08143 24.1673 8.07083 24.2488 14.25C24.1673 20.4291 19.1779 25.4185 12.9988 25.5ZM12.9988 5.49999C8.19271 5.56326 4.31203 9.44395 4.24875 14.25C4.31203 19.056 8.19271 22.9367 12.9988 23C17.8048 22.9367 21.6855 19.056 21.7488 14.25C21.6855 9.44395 17.8048 5.56326 12.9988 5.49999ZM19.2488 15.5H11.7488V7.99999H14.2488V13H19.2488V15.5ZM23.3638 6.38499L19.6025 2.63499L21.3638 0.863739L25.1263 4.61374L23.3638 6.38374V6.38499ZM2.6325 6.38499L0.863754 4.61374L4.6025 0.863739L6.37125 2.63499L2.635 6.38499H2.6325Z" fill="#B6CFCA"/>
</svg>
